<?xml version="1.0" encoding="UTF-8"?>
<svg id="Ebene_2" data-name="Ebene 2" xmlns="http://www.w3.org/2000/svg" viewBox="0 0 4078.7 736.41">
  <defs>
    <style>
      .cls-1 {
        fill: #1b8acb;
      }

      .cls-2 {
        fill: #86bc25;
      }

      .cls-3 {
        fill-rule: evenodd;
      }

      .cls-3, .cls-4 {
        fill: #11100d;
      }
    </style>
  </defs>
  <g id="SVGRoot">
    <g>
      <g>
        <g>
          <path id="path721" class="cls-2" d="m2965.6,333.2c0,17.4-4.8,30.7-14.5,39.9-4.9,4.6-10.7,8.1-17.6,10.4-6.9,2.3-14.8,3.5-23.7,3.5-16.9,0-29.6-4.7-38.3-14-4.3-4.7-7.6-10.5-9.7-17.3-2.1-6.9-3.2-14.9-3.2-24V55.9c0-16.9,4.7-29.7,14-38.5,4.7-4.4,10.4-7.7,17.2-9.9,6.8-2.2,14.7-3.3,23.6-3.3h44c17.1,0,29.8,3.5,38,10.5,4.1,3.5,7.9,8.7,11.4,15.7s6.7,15.7,9.7,26.1l39.1,139c.8,2.9,2.3,8.8,4.4,17.9,1,4.6,2.3,9.9,3.6,16,1.4,6.1,2.9,13,4.6,20.7,2.7-14.7,4.9-25.9,6.7-33.7.9-3.9,1.8-7.6,2.6-10.9.9-3.4,1.7-6.4,2.6-9.2l40.4-142.3c5-18.2,11.8-30.9,20.4-38,4.3-3.6,9.6-6.3,15.8-8.1,6.2-1.8,13.4-2.7,21.6-2.7h43.9c17.9,0,31.4,4.4,40.8,13.3,4.7,4.4,8.2,9.8,10.5,16.3,2.3,6.4,3.5,13.9,3.5,22.3v274.8c0,18.2-4.3,32-13,41.3-4.3,4.7-9.7,8.2-16.1,10.5-6.4,2.3-13.8,3.5-22.2,3.5-17.9,0-31.6-4.6-41.3-13.9-4.8-4.6-8.5-10.3-10.9-16.9s-3.6-14.3-3.6-23v-134.5c0-.8.2-8.5.6-22.9.4-14.2.7-28.3.9-42.3-3.2,14.8-6.1,27.7-8.6,38.7-1.2,5.5-2.5,10.5-3.6,15.1s-2.2,8.7-3.2,12.5l-39,153.9c-3,11.8-8.4,20.3-16,25.4-3.8,2.6-8.5,4.5-14.1,5.8s-12,1.9-19.3,1.9c-14.6,0-25.6-2.4-32.8-7.3-3.6-2.4-6.7-5.8-9.3-10s-4.6-9.3-6.1-15.3l-39.1-150.4c-2-7.4-4.1-16.1-6.2-26-1-5-2.3-11.2-3.8-18.6-1.5-7.4-3.2-16.1-5.1-25.9.3,5.4.6,10.9.8,16.7.1,2.9.1,6.2.2,10,0,3.8.1,8.1.1,12.8,0,6.1-.1,12.4-.2,19-.1,3.3-.1,5.8-.2,7.5,0,1.7-.1,2.7-.1,2.8l-.2,130.9h0Z"/>
          <path id="path723" class="cls-2" d="m2559.7,4.1h173.6c16.8,0,29.6,4,38.4,12.1,4.4,4,7.7,8.9,9.9,14.7,2.2,5.8,3.3,12.5,3.3,20.1,0,14.5-4.3,25.6-12.8,33.2-4.3,3.8-9.5,6.6-15.7,8.5-6.2,1.9-13.4,2.8-21.5,2.8h-127.7v50.9h101.8c17.1,0,29.4,3.5,37.1,10.5,3.8,3.5,6.7,8,8.6,13.5,1.9,5.5,2.9,12,2.9,19.5,0,14.8-3.9,26-11.8,33.6-3.9,3.8-8.7,6.6-14.5,8.5-5.7,1.9-12.3,2.8-19.9,2.8h-104.4v58.2h133.5c16.9,0,29.8,4.1,38.8,12.3,4.5,4.1,7.9,9.1,10.1,15.1,2.3,6,3.4,12.9,3.4,20.7,0,14.8-4.3,26.1-13,33.8-4.3,3.9-9.7,6.8-15.9,8.7-6.3,1.9-13.6,2.9-21.8,2.9h-182.4c-26.7,0-45.4-5.2-55.9-15.7-5.3-5.2-9.3-12.5-11.9-21.7-2.6-9.2-4-20.5-4-33.7V74.9c0-26.4,5.3-44.8,15.9-55.2,5.3-5.2,12.6-9.1,21.9-11.7,9.3-2.6,20.7-3.9,34-3.9"/>
          <path id="path725" class="cls-2" d="m2289.8,238.5h-111.1v92.3c0,17.8-5.2,31.6-15.6,41.5-5.2,4.9-11.4,8.6-18.8,11.1-7.3,2.5-15.7,3.7-25.2,3.7-19.6,0-34.4-4.6-44.5-13.7-5.1-4.6-8.9-10.2-11.4-17-2.5-6.7-3.8-14.6-3.8-23.5V61.4c0-17.9,5.2-31.7,15.7-41.6,5.2-4.9,11.5-8.6,18.9-11.1,7.3-2.5,15.7-3.7,25.2-3.7,19.4,0,34.2,4.6,44.3,13.9,5.1,4.6,8.9,10.3,11.4,17.1,2.5,6.7,3.8,14.5,3.8,23.4v77h111.1V59.4c0-17.7,5-31.2,15.1-40.4,5-4.6,11.2-8.1,18.6-10.4,7.4-2.3,15.9-3.5,25.5-3.5,19,0,33.7,5,44.2,14.9,5.3,5,9.2,10.9,11.8,17.8,2.6,6.9,3.9,14.8,3.9,23.6v271.4c0,17.6-5.1,31.1-15.2,40.4-5.1,4.6-11.3,8.1-18.7,10.4s-15.9,3.5-25.6,3.5c-18.8,0-33.5-4.9-44-14.8-5.2-4.9-9.2-10.8-11.8-17.8-2.6-6.9-3.9-14.8-3.9-23.7l.1-92.3Z"/>
          <path id="path727" class="cls-2" d="m1832.7,299.1c11.1,0,20.9-1.9,29.2-5.8,4.2-1.9,8.1-4.4,11.9-7.3,3.7-3,7.2-6.4,10.5-10.4.7-.8,3.1-4.8,7.5-11.9,2.2-3.5,4.3-6.7,6.6-9.5,2.2-2.8,4.5-5.3,6.7-7.4,4.4-3.9,9.6-6.9,15.6-9.1,6.3-2.3,12.8-3.3,19.4-3.3,15.5,0,28.4,5,38.6,14.9,5.1,5,8.9,10.6,11.5,16.8,2.5,6.2,3.8,13.1,3.8,20.6,0,11.3-3.1,22.7-9.3,34.2-3.1,5.8-6.9,11.3-11.3,16.5-4.4,5.2-9.5,10.2-15.2,14.9-15.3,13.1-33.4,23-54.2,29.8-10.4,3.4-21.3,5.9-32.8,7.6s-23.5,2.5-36,2.5c-61.7,0-109.8-17.3-144.3-51.9-17.3-17.3-30.2-38-38.9-62-8.6-24-12.9-51.4-12.9-82.1,0-60.6,16.9-108.5,50.8-143.5,16.9-17.5,37-30.7,60-39.4,23.1-8.8,49.2-13.1,78.5-13.1,48,0,87.4,10.2,118.2,30.7,15.4,10.2,26.9,21.7,34.6,34.3,7.7,12.7,11.5,26.6,11.5,41.7s-5,27.4-15.1,37.2c-5,4.9-10.7,8.6-17,11-6.3,2.4-13.3,3.7-20.8,3.7-10.1,0-18.9-2.3-26.2-6.8-3.7-2.3-7.4-5.5-11.3-9.6-3.9-4.1-7.8-9.2-11.9-15.2-8.5-12.5-17.2-21.3-26.3-26.4-4.6-2.6-9.6-4.5-15.1-5.8-5.5-1.3-11.5-1.9-18-1.9-24.1,0-42.1,8.5-53.9,25.6-5.9,8.5-10.3,19.3-13.3,32.3s-4.4,28.2-4.4,45.6c0,33.8,6.3,59.4,18.7,76.7,6.2,8.7,13.9,15.2,23.1,19.5,8.8,4.2,19.4,6.3,31.5,6.3"/>
        </g>
        <g>
          <path id="path801" class="cls-1" d="m1332.2,354.2c-4,10.9-10.4,19.3-19,25.1-4.3,2.9-9,5.1-14.2,6.5-5.2,1.4-10.8,2.2-16.9,2.2-16.5,0-29.6-4.6-39.3-13.9-4.8-4.6-8.5-10-10.9-16.3-2.4-6.2-3.6-13.3-3.6-21.1,0-4.9.2-9.3.8-13.1.3-1.9.6-3.7,1-5.3.4-1.6.8-3,1.3-4.3l90.6-254.3c7.2-20.7,15.4-35,24.4-42.9,4.5-4,9.8-6.9,15.8-8.9,6.1-2,12.9-3,20.5-3h34.7c15.2,0,27.1,3.7,35.7,11,4.3,3.7,8.5,9.1,12.6,16.4,4.1,7.3,8.1,16.4,12,27.3l91.6,254.3c2.5,5.9,3.8,15.2,3.8,23.2,0,15.3-4.9,27.6-14.8,36.9-4.9,4.6-10.7,8.1-17.2,10.4s-13.8,3.5-21.9,3.5c-12.7,0-23.3-2.9-31.9-8.6-4.3-2.9-8-6.4-11.2-10.6-3.2-4.2-5.8-9.1-7.8-14.7l-8.4-21.7h-119.1l-8.6,21.9Zm30.6-99.5h75.1l-37.1-128.7-38,128.7Z"/>
          <path id="path803" class="cls-1" d="m834,248.7V61.4c0-17.7,5.2-31.5,15.7-41.4,5.3-5,11.5-8.7,18.8-11.2,7.3-2.5,15.6-3.7,24.9-3.7,19.3,0,34.1,4.7,44.4,14,5.1,4.7,9,10.4,11.5,17.1,2.6,6.7,3.8,14.4,3.8,23.2v180c0,20.9,4,35.7,12.1,44.5,4,4.4,9.4,7.7,16,9.9,6.6,2.2,14.5,3.3,23.7,3.3,18,0,31.1-4.5,39.2-13.5,4-4.5,7.1-10.4,9.1-17.8s3-16.2,3-26.5V59.3c0-17.5,5.1-30.9,15.4-40.3,5.1-4.7,11.4-8.2,18.8-10.5s15.9-3.5,25.6-3.5c18.6,0,33.2,5,43.7,14.9,5.2,5,9.2,10.9,11.8,17.8,2.6,6.9,3.9,14.8,3.9,23.6v187.3c0,45.5-14.9,80.8-44.6,105.9-14.9,12.5-32.8,21.9-53.8,28.2-21,6.3-45,9.4-72.1,9.4-54.1,0-96.2-12.5-126.1-37.6-15-12.5-26.2-27.6-33.7-45.3-7.4-17.6-11.1-37.8-11.1-60.5"/>
          <path id="path805" class="cls-1" d="m693.1,402.5l-30.5-30.7c-12.5,6.8-26.5,11.9-42.1,15.2-7.8,1.7-15.9,3-24.4,3.8s-17.2,1.3-26.4,1.3c-57.7,0-104-17.7-138.9-53.1-17.4-17.7-30.5-38.3-39.2-61.8s-13.1-49.9-13.1-79.2c0-61.1,17.3-109.4,52-144.9,17.3-17.7,37.8-31,61.4-39.9,23.7-8.7,50.4-13.2,80.4-13.2,59.7,0,106.8,17.5,141.4,52.5,17.3,17.5,30.3,38.2,38.9,62.1,8.6,23.9,12.9,51,12.9,81.3,0,24.9-3.6,48.1-10.7,69.6-3.6,10.8-8,21.2-13.4,31.2s-11.6,19.6-18.7,28.9l24.2,26.4c6.5,7.2,10.9,16.5,10.8,25.1,0,9.5-4.2,18.2-12.6,26.2-4.2,4-8.6,7-13.4,9-4.7,2-9.6,3-14.9,3-8,.1-15.8-5-23.7-12.8h0Zm-98.5-103.6l-26.7-26.9c-3.8-4.9-6.2-11.7-6.1-17.8,0-9.5,4-18.2,12.1-26,4-3.9,8.3-6.9,12.7-8.9,4.5-2,9.2-3,14.1-3,4.4,0,8.5.7,12.2,2,1.9.7,3.5,1.5,4.9,2.4s2.7,2,3.7,3.2l20.8,22.4c3.6-14.6,5.8-29.8,5.8-45.1,0-39.2-6-67.6-18.1-85-6-8.7-13.8-15.3-23.5-19.6-9.7-4.4-21.2-6.5-34.5-6.5-26.3,0-45.6,8.5-58,25.7-6.2,8.5-10.8,19.5-13.9,32.9s-4.6,29.2-4.6,47.5c0,36.7,6.2,63.6,18.6,80.6,6.2,8.5,14.2,14.9,23.9,19.1,9.8,4.2,21.3,6.4,34.6,6.4,7.8-.2,14.7-.9,22-3.4"/>
          <path id="path807" class="cls-1" d="m104,354.2c-4.1,10.9-10.4,19.3-19,25.1-4.3,2.9-9,5.1-14.2,6.5s-10.8,2.2-16.9,2.2c-16.5,0-29.6-4.6-39.3-13.9-4.8-4.6-8.5-10-10.9-16.3-2.5-6.1-3.7-13.2-3.7-21,0-4.9.3-9.3.8-13.1.2-1.9.6-3.7.9-5.3.4-1.6.8-3,1.3-4.3L93.6,59.8c7.3-20.7,15.4-35,24.4-42.9,4.5-4,9.8-6.9,15.8-8.9s12.9-3,20.4-3h34.7c15.2,0,27.1,3.7,35.7,11,4.3,3.7,8.5,9.1,12.6,16.4s8.1,16.4,12,27.3l91.6,254.3c2.5,5.9,3.9,15.2,3.8,23.2,0,15.3-4.9,27.6-14.8,36.9-4.9,4.6-10.6,8.1-17.2,10.4-6.5,2.3-13.8,3.5-21.9,3.5-12.7,0-23.3-2.9-31.9-8.6-4.3-2.9-8-6.4-11.2-10.6s-5.8-9.1-7.8-14.7l-8.3-21.7h-119.2l-8.3,21.8Zm30.6-99.5h75.1l-37.2-128.7-37.9,128.7Z"/>
        </g>
        <g>
          <path id="path809" class="cls-1" d="m3408.5,59c8-1.3,16-2.3,24.4-2.9,8.4-.6,17-.9,26-.7,8.9.2,18.1.8,27.3,1.8,9.3,1,18.6,2.4,28.5,4.5s20.2,4.8,28.1,7.1c7.9,2.3,13.3,4,18.3,5.7,4.9,1.7,9.4,3.3,12.7,4.6,3.3,1.2,5.5,2.1,7.7,2.9,8.4,3.2,15.9,6.2,23.6,9.3,1.9.8,3.9,1.6,5.5,2.2,4.7,1.9,7.7,3.1,11.7,4.7,1.3.5,2.7,1.1,4.6,1.8,1.9.7,4.4,1.7,6.9,2.7s5,1.9,6.7,2.5c3,1.1,4.1,1.5,6,2.2,2.4.9,4.3,1.6,6.6,2.4.7.3,1.5.6,7.5,2.5s17.3,5.5,27.1,8.1c9.8,2.6,18.2,4.1,27.2,5.5,9,1.3,18.6,2.5,29.1,3.1,10.5.7,22,.8,34.8.4,12.8-.4,26.8-1.4,40.5-3,13.7-1.6,27.1-3.8,39.4-6.4,12.2-2.6,23.3-5.7,31.2-7.9,7.8-2.3,12.4-3.8,17.3-5.5,5-1.7,10.3-3.5,13.4-4.6,3.1-1.1,4-1.5,5-1.8,4.9-1.8,8.1-3.1,12.2-4.7.9-.4,1.9-.7,2.8-1.1,1-.4,1.9-.8,3.6-1.4,3.5-1.4,8.8-3.5,13.3-5.4,6.9-2.8,14.4-5.9,21.4-8.7,2.3-.9,4.6-1.9,6.3-2.5,1.7-.7,2.8-1.1,4-1.6,1.1-.4,2.3-.9,4.2-1.7,2-.8,4.8-1.9,7.8-3,2.9-1.1,6-2.2,8.1-2.9,2-.7,3-1,4-1.4s1.9-.7,8-2.6,17.3-5.2,27.8-7.8c10.4-2.6,20-4.4,29.6-5.7V14.8c-9.7,1.4-19.4,3.2-28.9,5.5-9.6,2.3-19,5-25.5,7s-10.2,3.3-13.8,4.6-7.2,2.6-11.3,4.1-8.6,3.3-13.2,5.1c-9.2,3.7-18.7,7.6-28.3,11.5-4.9,2-9.8,4-14,5.7-4.2,1.7-7.6,3-11,4.3s-6.8,2.7-15.1,5.6c-8.2,2.9-21.3,7.3-33.7,10.8s-24.2,6.1-36.4,8.3c-12.3,2.2-25,4-37.7,5.2s-25.4,1.9-37,2.1-22.1-.1-31.8-.8c-9.7-.7-18.7-1.7-27.5-3.1-8.8-1.4-17.3-3.1-26.4-5.4-9-2.3-18.6-5.3-24.7-7.3-6.1-2-8.8-3-11.5-3.9-2.7-1-5.4-2-9.5-3.5s-9.5-3.6-14.9-5.8c-5.4-2.1-10.9-4.3-15.4-6.1-4.5-1.8-8.1-3.2-11.6-4.7-3.6-1.4-7.1-2.9-11.2-4.4-4.1-1.6-8.6-3.4-13.2-5.1-4.6-1.7-9.2-3.5-16.7-5.9-7.5-2.5-17.9-5.7-27.6-8.2-9.7-2.5-18.8-4.4-27.6-5.8-8.8-1.4-17.3-2.5-25.6-3.1-8.4-.7-16.5-1-24.6-1s-16,.4-23.6,1.1c-15.1,1.3-29.6,3.9-44.1,7.7v34.8c7.4-2,15.3-3.7,23.2-5.1"/>
          <path id="path811" class="cls-1" d="m3408.5,179.4c8-1.3,16-2.3,24.4-2.9,8.4-.6,17-.9,26-.7,8.9.2,18.1.8,27.3,1.8,9.3,1,18.6,2.4,28.5,4.5,9.9,2.1,20.2,4.8,28.1,7.1,7.9,2.3,13.3,4,18.3,5.7,4.9,1.7,9.4,3.3,12.7,4.6,3.3,1.2,5.5,2.1,7.7,2.9,8.4,3.2,15.9,6.2,23.6,9.3,1.9.8,3.9,1.6,5.5,2.2,4.7,1.9,7.7,3.1,11.7,4.7,1.3.5,2.7,1.1,4.6,1.8,1.9.7,4.4,1.7,6.9,2.7s5,1.9,6.7,2.5c3,1.1,4.1,1.5,6,2.2,2.4.9,4.3,1.6,6.6,2.4.7.3,1.5.6,7.5,2.5s17.3,5.5,27.1,8.1c9.8,2.6,18.2,4.1,27.2,5.5,9,1.3,18.6,2.4,29.1,3.1,10.5.7,22,.9,34.8.5s26.8-1.4,40.5-3c13.7-1.6,27.1-3.8,39.4-6.4,12.2-2.6,23.3-5.7,31.2-7.9,7.8-2.3,12.4-3.8,17.3-5.5,5-1.7,10.3-3.5,13.4-4.6,3.1-1.1,4-1.4,5-1.8,4.9-1.8,8.1-3.1,12.2-4.7.9-.4,1.9-.7,2.8-1.1,1-.4,1.9-.8,3.6-1.4,3.5-1.4,8.8-3.5,13.3-5.4,6.9-2.8,14.4-5.9,21.4-8.7,2.3-.9,4.6-1.9,6.3-2.5,1.7-.7,2.8-1.1,4-1.6,1.1-.5,2.3-.9,4.2-1.7,2-.8,4.8-1.9,7.8-3,2.9-1.1,6-2.2,8.1-2.9,2-.7,3-1,4-1.4s1.9-.7,8-2.6c6.1-1.9,17.3-5.2,27.8-7.8,10.4-2.6,20-4.4,29.6-5.7v-34.8c-9.7,1.4-19.4,3.2-28.9,5.5-9.6,2.3-19,5-25.5,7s-10.2,3.3-13.8,4.6-7.2,2.6-11.3,4.1-8.6,3.3-13.2,5.1c-9.2,3.7-18.7,7.6-28.3,11.5-4.9,2-9.8,4-14,5.7-4.2,1.7-7.6,3-11,4.3s-6.8,2.7-15.1,5.6c-8.2,2.9-21.3,7.3-33.7,10.8s-24.2,6.1-36.4,8.3c-12.3,2.2-25,4-37.7,5.2s-25.4,1.9-37,2.1c-11.6.2-22.1-.1-31.8-.8s-18.7-1.7-27.5-3.1c-8.8-1.4-17.3-3.1-26.4-5.4-9-2.3-18.6-5.3-24.7-7.3-6.1-2-8.8-3-11.5-3.9-2.7-1-5.4-2-9.5-3.5s-9.5-3.6-14.9-5.8c-5.4-2.1-10.9-4.3-15.4-6.1s-8.1-3.2-11.6-4.7c-3.6-1.4-7.1-2.9-11.2-4.4-4.1-1.6-8.6-3.4-13.2-5.1-4.6-1.7-9.2-3.5-16.7-5.9-7.5-2.5-17.9-5.7-27.6-8.2-9.7-2.5-18.8-4.4-27.6-5.8-8.8-1.4-17.3-2.5-25.6-3.1-8.4-.7-16.5-1-24.6-1s-16,.4-23.6,1.1c-15.1,1.3-29.6,3.9-44.1,7.7v34.8c7.4-2.3,15.3-3.9,23.2-5.3"/>
          <path id="path813" class="cls-1" d="m3385,269.5c7.2-1.9,14.4-3.5,21.7-4.8s14.8-2.3,22.4-2.9c7.7-.7,15.6-1,23.6-1.1,8.1,0,16.2.3,24.6,1,8.3.7,16.8,1.7,25.6,3.1,8.8,1.4,17.9,3.3,27.6,5.8,9.7,2.5,20.1,5.7,27.6,8.2s12.1,4.2,16.7,5.9c4.6,1.7,9.1,3.5,13.2,5.1,4.1,1.6,7.7,3,11.2,4.4s7.1,2.9,11.6,4.7c4.5,1.8,9.9,4,15.3,6.1,5.4,2.1,10.9,4.2,15,5.7s6.8,2.5,9.5,3.5,5.4,2,11.5,3.9c6.1,2,15.6,4.9,24.7,7.3,9.1,2.3,17.6,4,26.4,5.4,8.8,1.4,17.8,2.4,27.5,3.1s20.2,1,31.8.8,24.3-.9,37-2.1,25.5-3,37.7-5.2c12.2-2.2,24-4.8,36.4-8.3s25.5-7.9,33.7-10.8c8.2-2.9,11.6-4.2,15.1-5.6,3.4-1.3,6.8-2.7,11-4.3,8.2-3.3,19-7.7,28.6-11.6,4.7-1.9,9.2-3.8,13.8-5.6,4.5-1.8,9.1-3.6,13.2-5.1,4.1-1.5,7.7-2.8,11.3-4.1,3.6-1.3,7.3-2.6,13.8-4.6s16-4.7,25.5-7,19.2-4.1,28.9-5.5v87c-9.7,1.4-19.4,3.2-28.9,5.5-9.6,2.3-19,5-25.5,7s-10.2,3.3-13.8,4.6c-3.6,1.3-7.2,2.6-11.3,4.1s-8.6,3.3-13.2,5.1c-9.2,3.7-18.7,7.6-28.3,11.5-4.9,2-9.8,4-14,5.7-4.2,1.7-7.6,3-11,4.3s-6.8,2.7-15.1,5.6c-8.2,2.9-21.3,7.3-33.7,10.8s-24.2,6.1-36.4,8.3c-12.3,2.2-25,4-37.7,5.2s-25.4,1.9-37,2.1-22.1-.1-31.8-.8c-9.7-.7-18.7-1.8-27.5-3.1-8.8-1.4-17.3-3.1-26.4-5.4-9-2.3-18.6-5.3-24.7-7.3-6.1-2-8.8-3-11.5-3.9-2.7-1-5.4-2-9.5-3.5s-9.5-3.6-14.9-5.8c-5.4-2.1-10.9-4.3-15.4-6.1-4.5-1.8-8.1-3.2-11.6-4.7-3.6-1.4-7.1-2.9-11.2-4.4-4.1-1.6-8.6-3.3-13.2-5.1-4.6-1.7-9.2-3.5-16.7-5.9-7.5-2.5-17.9-5.7-27.6-8.2-9.7-2.5-18.8-4.4-27.6-5.8-8.8-1.4-17.3-2.5-25.6-3.1-8.4-.7-16.5-1-24.6-1s-16,.4-23.6,1.1c-15.1,1.3-29.6,3.9-44.1,7.7l-.1-86.9h0Z"/>
        </g>
      </g>
      <g>
        <g>
          <path class="cls-3" d="m3094.46,653.39l-6.62-16.34-37.58-82.59h-3.87l-29.3,63.74c15.79,1.16,40.64,7.74,77.37,35.19Zm-96.5-149.34l-113.51,228h81.35l21.74-45.23,5.72-13.65c7.2.24,15.04,1.48,22.92,4.11,10.13,3.38,19.34,11.11,29.83,19.92,5.44,4.56,11.22,9.42,17.64,14.1,8.13,6.8,26.17,19.95,73.65,20.39h0s74.48.36,74.48.36l-113.12-228h-100.72Z"/>
          <rect class="cls-4" x="2785.11" y="504.04" width="74.92" height="228"/>
          <path class="cls-3" d="m2588.06,553.18l-47.27,48.88-83.02-98.02h96.94l33.35,49.14Zm-130.3,178.86l19.47-23.2,72.7-85.64,51.04-50.99,60.42-68.18h89.51l-17.18,21.22-77.39,90.47-50.88,51.5-50.75,64.83h-96.94Z"/>
          <polygon class="cls-4" points="2653.97 732.05 2619.42 685.89 2669.08 635.44 2750.91 732.05 2653.97 732.05"/>
          <path class="cls-4" d="m2283.78,679.31h60.48c20.29,0,30.44-9.18,30.44-27.53v-67.86c0-18.1-10.15-27.14-30.44-27.14h-60.48c-10.41,0-18.21,2.07-23.41,6.2-5.2,4.14-7.8,11.12-7.8,20.94v67.86c0,9.56,2.6,16.54,7.8,20.94,5.2,4.39,13.01,6.59,23.41,6.59Zm-26.92,52.74c-27.57,0-47.74-6.07-60.48-18.22-12.49-12.41-18.73-32.06-18.73-58.94v-74.06c0-26.37,6.24-45.76,18.73-58.16,12.49-12.41,32.65-18.61,60.48-18.61h113.94c27.31,0,47.22,6.2,59.7,18.61,12.75,12.41,19.12,31.8,19.12,58.16v74.06c0,26.88-6.37,46.53-19.12,58.94-12.75,12.15-32.65,18.22-59.7,18.22h-113.94Z"/>
          <path class="cls-3" d="m2027.28,605.46c-5.93.26-12.12.39-18.57.39-8,0-15.86-.13-23.6-.39-7.74-.52-14.83-.9-21.28-1.16v-46.84h80.48c8.51,0,14.32,1.55,17.41,4.65,3.35,3.1,5.03,7.48,5.03,13.16v4.26c0,6.45-1.68,12-5.03,16.65-3.1,4.39-9.03,7.1-17.8,8.13-4.9.52-10.45.9-16.64,1.16Zm103.7,126.58c-10.32,0-21.8-1.55-34.44-4.65-12.64-3.35-20.51-7.48-32.89-20.13l-16.25-16.26c-7.74-7.74-15.22-14.06-22.44-18.97-6.97-4.9-14.96-8.52-23.99-10.84-9.03-2.58-20.38-3.87-34.05-3.87h-3.1v74.71h-75.45v-196.65l-3.87-31.36h179.16c16.51,0,29.79,2.06,39.86,6.19,10.32,3.87,18.19,9.16,23.6,15.87,5.68,6.45,9.54,13.81,11.61,22.06,2.06,8.26,3.1,16.65,3.1,25.16v7.35c0,15.48-4,29.42-12,41.81-7.74,12.13-20.12,20.77-37.15,25.94,6.45,3.87,11.27,8.35,18.19,12,8.3,4.14,12.38,5.25,20.12,7.71s10.83,3.91,10.83,3.91v60h-10.83Z"/>
        </g>
        <path class="cls-4" d="m1750.89,733.46l-5.16-23.01h-1.18c-8.06,10.13-16.1,16.99-24.11,20.57-8.01,3.59-18.12,5.38-30.31,5.38-15.93,0-28.42-4.18-37.46-12.54-9.05-8.36-13.57-20.15-13.57-35.39,0-32.84,25.91-50.04,77.72-51.62l27.43-1.03v-9.59c0-12.29-2.65-21.36-7.96-27.21-5.31-5.85-13.81-8.77-25.51-8.77-8.55,0-16.64,1.28-24.26,3.83-7.62,2.56-14.77,5.41-21.46,8.55l-8.11-19.91c8.16-4.33,17.06-7.72,26.69-10.18,9.63-2.46,19.17-3.69,28.61-3.69,19.56,0,34.11,4.33,43.65,12.98,9.54,8.65,14.31,22.42,14.31,41.29v110.31h-19.32Zm-54.71-18.43c14.84,0,26.52-4.01,35.02-12.02,8.5-8.01,12.76-19.39,12.76-34.14v-14.6l-23.89,1.03c-18.58.69-32.13,3.64-40.63,8.85-8.51,5.21-12.76,13.42-12.76,24.63,0,8.46,2.58,14.95,7.74,19.47,5.16,4.52,12.41,6.78,21.75,6.78Z"/>
        <g>
          <path class="cls-4" d="m3355.17,566.79c21.33,0,37.8,7.35,49.41,22.05,11.6,14.7,17.4,35.22,17.4,61.57s-5.9,47.41-17.7,62.01c-11.8,14.6-28.17,21.9-49.11,21.9-10.91,0-20.65-1.97-29.2-5.9s-15.54-9.78-20.94-17.55h-2.06c-3.05,11.8-4.87,18.63-5.46,20.5h-19.03v-229.48h26.55v55.75c0,11.11-.49,22.22-1.47,33.33h1.47c10.91-16.12,27.63-24.19,50.14-24.19Zm-4.42,21.97c-16.32,0-28.02,4.62-35.1,13.86-7.08,9.24-10.62,24.88-10.62,46.9v1.18c0,22.12,3.61,37.93,10.84,47.41,7.23,9.49,19.05,14.23,35.47,14.23,14.55,0,25.39-5.33,32.52-16,7.13-10.67,10.69-26.08,10.69-46.23s-3.59-35.79-10.77-46.01c-7.18-10.22-18.19-15.34-33.03-15.34Z"/>
          <path class="cls-4" d="m3539.81,566.49c7.18,0,13.52.59,19.03,1.77l-3.24,24.48c-6-1.38-11.85-2.06-17.55-2.06-8.55,0-16.49,2.36-23.82,7.08-7.33,4.72-13.05,11.23-17.18,19.54-4.13,8.31-6.19,17.53-6.19,27.65v86.42h-26.55v-161.93h21.83l2.95,29.64h1.18c6.19-10.72,13.52-18.83,21.98-24.33,8.45-5.51,17.65-8.26,27.58-8.26Z"/>
          <path class="cls-4" d="m3686.11,731.37l-5.16-23.01h-1.18c-8.06,10.13-16.1,16.99-24.11,20.57-8.01,3.59-18.12,5.38-30.31,5.38-15.93,0-28.41-4.18-37.46-12.54-9.05-8.36-13.57-20.15-13.57-35.39,0-32.84,25.91-50.04,77.72-51.62l27.43-1.03v-9.59c0-12.29-2.65-21.36-7.96-27.21-5.31-5.85-13.81-8.77-25.51-8.77-8.55,0-16.64,1.28-24.26,3.83-7.62,2.56-14.77,5.41-21.46,8.55l-8.11-19.91c8.16-4.33,17.06-7.72,26.69-10.18,9.63-2.46,19.17-3.69,28.61-3.69,19.56,0,34.12,4.33,43.65,12.98,9.54,8.65,14.31,22.42,14.31,41.29v110.31h-19.32Zm-54.71-18.43c14.84,0,26.52-4.01,35.03-12.02,8.5-8.01,12.76-19.39,12.76-34.14v-14.6l-23.89,1.03c-18.58.69-32.13,3.64-40.63,8.85-8.51,5.21-12.76,13.42-12.76,24.63,0,8.46,2.58,14.95,7.74,19.47,5.16,4.52,12.41,6.78,21.75,6.78Z"/>
          <path class="cls-4" d="m3865.89,731.37v-103.53c0-13.17-2.93-22.98-8.77-29.42-5.85-6.44-15.02-9.66-27.5-9.66-16.62,0-28.68,4.6-36.21,13.79-7.52,9.19-11.28,24.16-11.28,44.91v83.91h-26.55v-161.93h21.38l3.98,22.12h1.48c5.01-7.96,12.04-14.13,21.09-18.51,9.04-4.37,19.02-6.56,29.94-6.56,19.86,0,34.61,4.82,44.24,14.45,9.63,9.64,14.45,24.63,14.45,44.98v105.45h-26.25Z"/>
          <path class="cls-4" d="m3999.65,734.32c-21.04,0-37.36-7.28-48.96-21.83-11.6-14.55-17.4-35.15-17.4-61.79s5.83-47.09,17.48-61.94c11.65-14.84,28.04-22.27,49.18-22.27s38.44,7.96,50.14,23.89h1.92c-.29-1.97-.69-5.92-1.18-11.87-.49-5.95-.74-9.95-.74-12.02v-64.59h26.55v229.48h-21.38l-3.98-21.68h-1.18c-11.31,16.42-28.12,24.63-50.44,24.63Zm4.28-21.97c16.12,0,27.9-4.4,35.32-13.2,7.42-8.8,11.14-23.23,11.14-43.28v-4.87c0-22.51-3.76-38.57-11.28-48.15-7.52-9.59-19.35-14.38-35.47-14.38-13.67,0-24.24,5.43-31.71,16.3-7.47,10.87-11.21,26.38-11.21,46.53s3.71,35.25,11.13,45.57c7.42,10.32,18.11,15.49,32.08,15.49Z"/>
        </g>
      </g>
    </g>
  </g>
</svg>