<svg width="143" height="24" viewBox="0 0 143 24" fill="none" xmlns="http://www.w3.org/2000/svg"><path fill-rule="evenodd" clip-rule="evenodd" d="m119.515 0-12.183 24h8.732l2.334-4.76.614-1.437a8.89 8.89 0 0 1 2.461.432c1.086.356 2.075 1.17 3.201 2.097.584.48 1.204.991 1.894 1.484.873.716 2.809 2.1 7.905 2.146l.001.001 7.994.037-12.141-24h-10.812Zm10.358 15.72-.711-1.72-4.033-8.694h-.416l-3.145 6.71c1.695.122 4.363.814 8.305 3.704Z" fill="#fff"/><path d="M96.669 24V0h8.041v24h-8.041Z" fill="#fff"/><path fill-rule="evenodd" clip-rule="evenodd" d="m61.532 24 2.09-2.442 7.804-9.015 5.479-5.367L83.39 0h9.608l-1.845 2.233-8.306 9.523-5.462 5.42L71.938 24H61.532ZM75.518 5.173l-5.074 5.145L61.532 0h10.406l3.58 5.173Z" fill="#fff"/><path d="m82.592 23.997-3.707-4.858 5.33-5.31 8.783 10.168H82.592Z" fill="#5E8A5A"/><path d="M39.968 24c-2.96 0-5.124-.64-6.492-1.918-1.34-1.306-2.01-3.375-2.01-6.205V8.082c0-2.776.67-4.817 2.01-6.123C34.816.653 36.981 0 39.968 0h12.23c2.932 0 5.068.653 6.408 1.96 1.368 1.305 2.053 3.346 2.053 6.122v7.795c0 2.83-.684 4.899-2.053 6.205C57.238 23.36 55.102 24 52.198 24h-12.23Zm2.89-5.551h6.492c2.178 0 3.267-.966 3.267-2.898V8.408c0-1.905-1.089-2.857-3.267-2.857h-6.492c-1.117 0-1.954.218-2.513.653-.558.435-.837 1.17-.837 2.204v7.143c0 1.007.279 1.742.837 2.204.559.463 1.396.694 2.513.694Z" fill="#fff"/><path fill-rule="evenodd" clip-rule="evenodd" d="M26.457 24c-1.108 0-2.34-.163-3.697-.489-1.357-.353-2.201-.788-3.53-2.119l-1.745-1.711c-.83-.815-1.633-1.48-2.408-1.997-.748-.516-1.606-.896-2.575-1.14-.97-.272-2.188-.408-3.655-.408h-.333V24H.415V3.3L0 0h19.23c1.772 0 3.198.217 4.278.652 1.107.407 1.952.964 2.533 1.67a5.447 5.447 0 0 1 1.246 2.323c.222.87.333 1.752.333 2.649v.774c0 1.63-.43 3.097-1.288 4.4-.83 1.277-2.16 2.187-3.987 2.73.692.408 1.21.88 1.952 1.264.891.436 1.329.553 2.16.811.83.258 1.163.411 1.163.411V24h-1.163ZM15.326 10.676c-.637.027-1.302.04-1.994.04-.858 0-1.703-.013-2.533-.04a88.06 88.06 0 0 0-2.285-.123v-4.93h8.64c.913 0 1.536.163 1.868.49.36.325.54.787.54 1.384v.449c0 .679-.18 1.263-.54 1.752-.332.462-.969.747-1.91.855-.526.055-1.122.096-1.786.123Z" fill="#fff"/></svg>